<svg width="63" height="17" viewBox="0 0 63 17" fill="none" xmlns="http://www.w3.org/2000/svg">
<path d="M6.14 0.339999C7.22533 0.339999 8.208 0.589333 9.088 1.088C9.968 1.572 10.6573 2.26133 11.156 3.156C11.6547 4.05067 11.904 5.07 11.904 6.214C11.904 7.37267 11.6547 8.39933 11.156 9.294C10.6573 10.1887 9.968 10.8853 9.088 11.384C8.22267 11.868 7.24 12.11 6.14 12.11C5.20133 12.11 4.35067 11.9193 3.588 11.538C2.84 11.142 2.224 10.57 1.74 9.822V16.268H0.178V0.427999H1.674V2.716C2.14333 1.95333 2.75933 1.36667 3.522 0.955999C4.29933 0.545333 5.172 0.339999 6.14 0.339999ZM6.03 10.724C6.83667 10.724 7.57 10.5407 8.23 10.174C8.89 9.79267 9.40333 9.25733 9.77 8.568C10.1513 7.87867 10.342 7.094 10.342 6.214C10.342 5.334 10.1513 4.55667 9.77 3.882C9.40333 3.19267 8.89 2.65733 8.23 2.276C7.57 1.89467 6.83667 1.704 6.03 1.704C5.20867 1.704 4.468 1.89467 3.808 2.276C3.16267 2.65733 2.64933 3.19267 2.268 3.882C1.90133 4.55667 1.718 5.334 1.718 6.214C1.718 7.094 1.90133 7.87867 2.268 8.568C2.64933 9.25733 3.16267 9.79267 3.808 10.174C4.468 10.5407 5.20867 10.724 6.03 10.724ZM19.0717 0.339999C20.5824 0.339999 21.741 0.721333 22.5477 1.484C23.3544 2.232 23.7577 3.34667 23.7577 4.828V12H22.2617V10.196C21.9097 10.7973 21.389 11.2667 20.6997 11.604C20.025 11.9413 19.2184 12.11 18.2797 12.11C16.989 12.11 15.9624 11.802 15.1997 11.186C14.437 10.57 14.0557 9.756 14.0557 8.744C14.0557 7.76133 14.4077 6.96933 15.1117 6.368C15.8304 5.76667 16.967 5.466 18.5217 5.466H22.1957V4.762C22.1957 3.76467 21.917 3.00933 21.3597 2.496C20.8024 1.968 19.9884 1.704 18.9177 1.704C18.1844 1.704 17.4804 1.82867 16.8057 2.078C16.131 2.31267 15.5517 2.64267 15.0677 3.068L14.3637 1.902C14.9504 1.40333 15.6544 1.022 16.4757 0.757999C17.297 0.479333 18.1624 0.339999 19.0717 0.339999ZM18.5217 10.878C19.4017 10.878 20.157 10.68 20.7877 10.284C21.4184 9.87333 21.8877 9.28667 22.1957 8.524V6.632H18.5657C16.5857 6.632 15.5957 7.32133 15.5957 8.7C15.5957 9.37467 15.8524 9.91 16.3657 10.306C16.879 10.6873 17.5977 10.878 18.5217 10.878ZM33.9623 0.339999C35.0476 0.339999 36.0303 0.589333 36.9103 1.088C37.7903 1.572 38.4796 2.26133 38.9783 3.156C39.4769 4.05067 39.7263 5.07 39.7263 6.214C39.7263 7.37267 39.4769 8.39933 38.9783 9.294C38.4796 10.1887 37.7903 10.8853 36.9103 11.384C36.0449 11.868 35.0623 12.11 33.9623 12.11C33.0236 12.11 32.1729 11.9193 31.4103 11.538C30.6623 11.142 30.0463 10.57 29.5623 9.822V16.268H28.0003V0.427999H29.4963V2.716C29.9656 1.95333 30.5816 1.36667 31.3443 0.955999C32.1216 0.545333 32.9943 0.339999 33.9623 0.339999ZM33.8523 10.724C34.6589 10.724 35.3923 10.5407 36.0523 10.174C36.7123 9.79267 37.2256 9.25733 37.5923 8.568C37.9736 7.87867 38.1643 7.094 38.1643 6.214C38.1643 5.334 37.9736 4.55667 37.5923 3.882C37.2256 3.19267 36.7123 2.65733 36.0523 2.276C35.3923 1.89467 34.6589 1.704 33.8523 1.704C33.0309 1.704 32.2903 1.89467 31.6303 2.276C30.9849 2.65733 30.4716 3.19267 30.0903 3.882C29.7236 4.55667 29.5403 5.334 29.5403 6.214C29.5403 7.094 29.7236 7.87867 30.0903 8.568C30.4716 9.25733 30.9849 9.79267 31.6303 10.174C32.2903 10.5407 33.0309 10.724 33.8523 10.724ZM52.9864 6.698H43.3064C43.3944 7.90067 43.8564 8.876 44.6924 9.624C45.5284 10.3573 46.5844 10.724 47.8604 10.724C48.5791 10.724 49.2391 10.5993 49.8404 10.35C50.4418 10.086 50.9624 9.70467 51.4024 9.206L52.2824 10.218C51.7691 10.834 51.1238 11.3033 50.3464 11.626C49.5838 11.9487 48.7404 12.11 47.8164 12.11C46.6284 12.11 45.5724 11.8607 44.6484 11.362C43.7391 10.8487 43.0278 10.1447 42.5144 9.25C42.0011 8.35533 41.7444 7.34333 41.7444 6.214C41.7444 5.08467 41.9864 4.07267 42.4704 3.178C42.9691 2.28333 43.6438 1.58667 44.4944 1.088C45.3598 0.589333 46.3278 0.339999 47.3984 0.339999C48.4691 0.339999 49.4298 0.589333 50.2804 1.088C51.1311 1.58667 51.7984 2.28333 52.2824 3.178C52.7664 4.058 53.0084 5.07 53.0084 6.214L52.9864 6.698ZM47.3984 1.682C46.2838 1.682 45.3451 2.04133 44.5824 2.76C43.8344 3.464 43.4091 4.388 43.3064 5.532H51.5124C51.4098 4.388 50.9771 3.464 50.2144 2.76C49.4664 2.04133 48.5278 1.682 47.3984 1.682ZM57.6838 2.694C58.0504 1.91667 58.5931 1.33 59.3118 0.934C60.0451 0.537999 60.9471 0.339999 62.0178 0.339999V1.858L61.6438 1.836C60.4264 1.836 59.4731 2.21 58.7838 2.958C58.0944 3.706 57.7498 4.75467 57.7498 6.104V12H56.1878V0.427999H57.6838V2.694Z" fill="white"/>
</svg>
